<svg width="1118" height="1584" viewBox="0 0 1118 1584" fill="none" xmlns="http://www.w3.org/2000/svg">
<g filter="url(#filter0_f_602_35)">
<path d="M667.387 769.5C667.387 913.37 550.534 1030 406.387 1030C262.241 1030 145.387 913.37 145.387 769.5C145.387 625.63 262.241 509 406.387 509C550.534 509 667.387 625.63 667.387 769.5Z" fill="#E9D77E" fill-opacity="0.4"/>
</g>
<g filter="url(#filter1_f_602_35)">
<path d="M386 792C386 953.267 255.267 1084 94 1084C-67.2671 1084 -198 953.267 -198 792C-198 630.733 -67.2671 500 94 500C255.267 500 386 630.733 386 792Z" fill="#D79393" fill-opacity="0.5"/>
</g>
<g filter="url(#filter2_f_602_35)">
<path d="M388.5 599C388.5 731.548 286.869 839 161.5 839C36.1314 839 -65.5 731.548 -65.5 599C-65.5 466.452 36.1314 359 161.5 359C286.869 359 388.5 466.452 388.5 599Z" fill="#B27DA7" fill-opacity="0.25"/>
</g>
<defs>
<filter id="filter0_f_602_35" x="-304.613" y="59" width="1422" height="1421" filterUnits="userSpaceOnUse" color-interpolation-filters="sRGB">
<feFlood flood-opacity="0" result="BackgroundImageFix"/>
<feBlend mode="normal" in="SourceGraphic" in2="BackgroundImageFix" result="shape"/>
<feGaussianBlur stdDeviation="225" result="effect1_foregroundBlur_602_35"/>
</filter>
<filter id="filter1_f_602_35" x="-698" y="0" width="1584" height="1584" filterUnits="userSpaceOnUse" color-interpolation-filters="sRGB">
<feFlood flood-opacity="0" result="BackgroundImageFix"/>
<feBlend mode="normal" in="SourceGraphic" in2="BackgroundImageFix" result="shape"/>
<feGaussianBlur stdDeviation="250" result="effect1_foregroundBlur_602_35"/>
</filter>
<filter id="filter2_f_602_35" x="-315.5" y="109" width="954" height="980" filterUnits="userSpaceOnUse" color-interpolation-filters="sRGB">
<feFlood flood-opacity="0" result="BackgroundImageFix"/>
<feBlend mode="normal" in="SourceGraphic" in2="BackgroundImageFix" result="shape"/>
<feGaussianBlur stdDeviation="125" result="effect1_foregroundBlur_602_35"/>
</filter>
</defs>
</svg>
