<svg width="124" height="124" viewBox="0 0 124 124" fill="none" xmlns="http://www.w3.org/2000/svg">
<rect width="124" height="124" rx="62" fill="#D9D9D9" fill-opacity="0.26"/>
<path fill-rule="evenodd" clip-rule="evenodd" d="M84.8133 53.3148C82.6529 48.7277 79.1424 44.9104 74.752 42.3742C70.5263 39.9429 67.1121 36.3186 64.9372 31.9554C64.4859 31.0528 63.4092 30.6121 62.5315 31.1096C58.6805 33.2796 55.5949 36.5874 53.6975 40.5797C52.3863 43.3444 51.6542 46.4359 51.6542 49.7016L51.6649 50.3838C51.7111 51.9012 50.0978 53.0312 48.918 52.0753C47.6743 51.0709 46.5573 49.9408 45.5671 48.6853C44.8457 47.772 43.467 47.6334 42.7492 48.5467C39.6169 52.5338 37.7779 57.3828 37.4785 62.4443C37.1791 67.5057 38.4335 72.5378 41.0738 76.8664C43.7141 81.195 47.6142 84.6133 52.2515 86.6635C56.8887 88.7137 62.0418 89.2979 67.0204 88.3376C71.9989 87.3774 76.5651 84.9187 80.1073 81.2909C83.6495 77.6632 85.9984 73.0395 86.8395 68.0395C87.6806 63.0395 86.9736 57.9018 84.8133 53.3148ZM59.4336 59.8383C59.4336 61.2284 58.9785 60.9371 58.2821 60.4904C57.8243 60.1963 57.2638 59.8383 56.6589 59.8383C56.0603 59.8383 55.5051 60.1917 55.0499 60.4814L55.0358 60.4904C54.3394 60.9371 53.8843 61.2257 53.8843 59.8383C53.8843 57.5409 55.1274 55.6764 56.6589 55.6764C58.1905 55.6764 59.4336 57.5409 59.4336 59.8383ZM74.2251 68.1622C74.4687 68.584 74.5969 69.0625 74.5969 69.5495C74.5969 70.0366 74.4687 70.5151 74.2251 70.9369C73.0073 73.0462 71.2556 74.7977 69.1462 76.0154C67.0367 77.233 64.6439 77.8739 62.2082 77.8734C59.773 77.8734 57.3807 77.2323 55.2718 76.0147C53.1629 74.7971 51.4117 73.0458 50.1941 70.9369C49.9507 70.5153 49.8225 70.0371 49.8223 69.5503C49.8222 69.0634 49.9502 68.5852 50.1933 68.1635C50.4365 67.7417 50.7864 67.3914 51.2078 67.1477C51.6292 66.904 52.1073 66.7754 52.5941 66.7749H71.8223C72.3093 66.7749 72.7878 66.9031 73.2096 67.1467C73.6314 67.3902 73.9816 67.7404 74.2251 68.1622ZM69.3806 60.4904C68.9228 60.1963 68.3623 59.8383 67.7575 59.8383C67.1588 59.8383 66.6036 60.1917 66.1484 60.4814L66.1484 60.4814L66.1343 60.4904C65.4379 60.9371 64.9828 61.2257 64.9828 59.8383C64.9828 57.5409 66.2259 55.6764 67.7575 55.6764C69.2891 55.6764 70.5321 57.5409 70.5321 59.8383C70.5321 61.2284 70.0771 60.9371 69.3806 60.4904Z" fill="#BBB7E8"/>
</svg>
