<svg width="124" height="124" viewBox="0 0 124 124" fill="none" xmlns="http://www.w3.org/2000/svg">
<rect width="124" height="124" rx="62" fill="#D9D9D9" fill-opacity="0.26"/>
<path d="M49.6583 71.0072H59.1583M49.6583 59.1369H68.6583M56.7833 85.2501H59.1583M50.8363 85.2501C48.0576 85.1907 46.1576 85.0126 44.3146 84.4782C41.8208 83.8251 40.0039 81.6282 39.4696 78.5431C38.7927 75.6361 39.0302 68.4564 38.9708 59.9088C38.9756 53.2802 38.6739 46.9128 39.7427 43.2933C40.3958 42.1058 40.9302 37.7738 49.7771 37.8308C51.2614 37.7738 66.9958 37.655 69.4896 37.8925C77.8021 38.0707 78.6333 42.3433 79.1083 46.3784C79.4099 49.3472 79.3458 54.0924 79.3458 59.1369M49.6583 37.7738C50.3708 41.6308 50.3114 44.1245 52.9239 44.7159C54.0521 44.894 56.6289 44.8893 59.3958 44.894C61.8658 44.8988 64.3833 44.9225 65.5114 44.6565C68.3021 44.0058 68.0052 40.562 68.7177 37.7738M76.4127 67.1502C73.1471 70.4752 66.8581 76.4079 66.8581 76.8235C66.3522 77.5289 65.9081 78.9611 65.6136 80.9798C65.2407 82.8489 64.7942 84.4782 65.3167 84.9532C65.8392 85.4282 67.8033 85.0292 69.8838 84.5969C71.5463 84.4188 73.0901 83.8251 73.8596 83.2337C74.9877 82.2362 82.6423 74.5079 83.5306 73.5009C84.1837 72.6103 84.2431 70.9478 83.6731 69.9384C83.3548 69.2259 81.3361 67.3259 80.6829 66.7939C80.0262 66.3889 79.257 66.2049 78.488 66.2691C77.7191 66.3332 76.9933 66.642 76.4127 67.1502Z" stroke="black" stroke-width="1.5" stroke-linecap="round" stroke-linejoin="round"/>
</svg>
