<svg width="62" height="72" viewBox="0 0 62 72" fill="none" xmlns="http://www.w3.org/2000/svg">
<path fill-rule="evenodd" clip-rule="evenodd" d="M58.9302 27.8777C56.2431 22.1723 51.8767 17.4242 46.4158 14.2697C41.1597 11.2455 36.9131 6.73748 34.2079 1.31039C33.6466 0.187725 32.3073 -0.360347 31.2156 0.258444C26.4257 2.9575 22.5877 7.07185 20.2276 12.0376C18.5967 15.4763 17.6862 19.3216 17.6862 23.3836L17.6994 24.2322C17.7569 26.1195 15.7502 27.5251 14.2828 26.3361C12.7358 25.0867 11.3465 23.6812 10.1148 22.1195C9.21758 20.9835 7.50264 20.8112 6.60981 21.9471C2.71385 26.9063 0.426443 32.9377 0.0540122 39.2333C-0.318419 45.5288 1.24192 51.7879 4.52599 57.1719C7.81006 62.5559 12.661 66.8077 18.429 69.3578C24.197 71.9079 30.6065 72.6344 36.799 71.4401C42.9914 70.2457 48.671 67.1876 53.0768 62.6752C57.4827 58.1629 60.4044 52.4119 61.4505 46.1927C62.4967 39.9736 61.6173 33.5832 58.9302 27.8777ZM31.5996 51.8927C34.344 51.8985 36.9802 50.8435 38.9365 48.9564C39.4349 48.4908 40.1003 48.2362 40.7886 48.2477C41.477 48.2592 42.1331 48.5359 42.6151 49.0179C43.097 49.4998 43.3662 50.1484 43.3643 50.8234C43.3624 51.4984 43.0896 52.1455 42.6049 52.6248C39.6691 55.4536 35.7159 57.0362 31.5996 57.0305C27.4833 57.0362 23.5301 55.4536 20.5943 52.6248C20.3429 52.39 20.1416 52.1085 20.0021 51.7967C19.8626 51.4849 19.7878 51.1491 19.7819 50.8087C19.7759 50.4683 19.8391 50.1302 19.9676 49.8139C20.0962 49.4976 20.2876 49.2096 20.5307 48.9665C20.7738 48.7234 21.0638 48.5301 21.3837 48.3978C21.7037 48.2655 22.0473 48.1969 22.3946 48.196C22.7418 48.1951 23.0858 48.2618 23.4065 48.3923C23.7272 48.5229 24.0183 48.7146 24.2627 48.9564C26.219 50.8435 28.8552 51.8985 31.5996 51.8927ZM19.6492 35.0388C20.3864 34.3162 21.3861 33.9102 22.4285 33.9102C23.4709 33.9102 24.4707 34.3162 25.2078 35.0388C25.9449 35.7615 26.359 36.7416 26.359 37.7636C26.359 38.7855 25.9449 39.7657 25.2078 40.4883C24.4707 41.211 23.4709 41.617 22.4285 41.617C21.3861 41.617 20.3864 41.211 19.6492 40.4883C18.9121 39.7657 18.498 38.7855 18.498 37.7636C18.498 36.7416 18.9121 35.7615 19.6492 35.0388ZM37.9914 35.0388C38.7285 34.3162 39.7283 33.9102 40.7707 33.9102C41.8131 33.9102 42.8128 34.3162 43.5499 35.0388C44.2871 35.7615 44.7012 36.7416 44.7012 37.7636C44.7012 38.7855 44.2871 39.7657 43.5499 40.4883C42.8128 41.211 41.8131 41.617 40.7707 41.617C39.7283 41.617 38.7285 41.211 37.9914 40.4883C37.2543 39.7657 36.8402 38.7855 36.8402 37.7636C36.8402 36.7416 37.2543 35.7615 37.9914 35.0388Z" fill="url(#paint0_linear_906_222)"/>
<defs>
<linearGradient id="paint0_linear_906_222" x1="96.3171" y1="57.1293" x2="-142.766" y2="33.617" gradientUnits="userSpaceOnUse">
<stop offset="0.26623" stop-color="#EACFBA"/>
<stop offset="1" stop-color="#B174C2"/>
</linearGradient>
</defs>
</svg>
