<svg width="124" height="124" viewBox="0 0 124 124" fill="none" xmlns="http://www.w3.org/2000/svg">
<rect width="124" height="124" rx="62" fill="#D9D9D9" fill-opacity="0.26"/>
<path d="M63.6706 40.8958C63.4544 40.5101 63.1393 40.189 62.7578 39.9655C62.3763 39.742 61.9422 39.6241 61.5 39.6241C61.0578 39.6241 60.6237 39.742 60.2422 39.9655C59.8607 40.189 59.5456 40.5101 59.3294 40.8958C57.2023 44.7531 55.4515 48.8063 54.1012 52.9992C53.7479 54.0947 52.7008 54.8547 51.5011 54.8877C47.8645 54.9833 44.2398 55.3443 40.6558 55.9679C38.6885 56.3136 37.9489 58.5553 39.3468 59.9227C42.0581 62.5751 44.9544 65.0315 48.0139 67.2732C48.9467 67.9569 49.3305 69.1286 48.9747 70.2012C47.6192 74.2757 46.6491 78.4683 46.0772 82.724C45.823 84.643 47.8767 85.9977 49.6609 85.0827C53.199 83.2685 56.5823 81.1672 59.7768 78.7997C60.2771 78.4345 60.8805 78.2377 61.5 78.2377C62.1195 78.2377 62.7229 78.4345 63.2233 78.7997C66.417 81.1681 69.8004 83.2695 73.3391 85.0827C75.1208 85.9977 77.177 84.643 76.9228 82.724C76.3511 78.4674 75.381 74.2739 74.0253 70.1987C73.6695 69.1312 74.0508 67.9569 74.9861 67.2732C78.0456 65.0315 80.9419 62.5751 83.6532 59.9227C85.0511 58.5553 84.314 56.3136 82.3442 55.9679C78.7607 55.3407 75.1357 54.9796 71.4989 54.8877C70.9239 54.8785 70.3657 54.6923 69.9004 54.3544C69.4351 54.0164 69.0854 53.5432 68.8988 52.9992C67.5484 48.8072 65.7976 44.7523 63.6706 40.8958Z" stroke="black" stroke-width="1.5" stroke-linecap="round" stroke-linejoin="round"/>
</svg>
