<svg width="124" height="124" viewBox="0 0 124 124" fill="none" xmlns="http://www.w3.org/2000/svg">
<rect width="124" height="124" rx="62" fill="#D9D9D9" fill-opacity="0.26"/>
<path fill-rule="evenodd" clip-rule="evenodd" d="M63.03 60.2327L72.952 70.1547L70.7896 72.3196L59.97 61.5V46.2H63.03V60.2327ZM61.5 87C47.4164 87 36 75.5836 36 61.5C36 47.4164 47.4164 36 61.5 36C75.5836 36 87 47.4164 87 61.5C87 75.5836 75.5836 87 61.5 87ZM61.5 83.94C67.4515 83.94 73.1592 81.5758 77.3675 77.3675C81.5758 73.1592 83.94 67.4515 83.94 61.5C83.94 55.5485 81.5758 49.8408 77.3675 45.6325C73.1592 41.4242 67.4515 39.06 61.5 39.06C55.5485 39.06 49.8408 41.4242 45.6325 45.6325C41.4242 49.8408 39.06 55.5485 39.06 61.5C39.06 67.4515 41.4242 73.1592 45.6325 77.3675C49.8408 81.5758 55.5485 83.94 61.5 83.94Z" fill="black"/>
</svg>
